<mxfile host="app.diagrams.net" modified="2023-10-05T03:15:42.241Z" agent="Mozilla/5.0 (Windows NT 10.0; Win64; x64; rv:109.0) Gecko/20100101 Firefox/118.0" etag="Kd6gvKYJOOX2VOnbiof4" version="21.6.6" type="github">
  <diagram name="PÃ¡gina-1" id="JFDIJl9FU-yym7yxDOXc">
    <mxGraphModel dx="2261" dy="746" grid="1" gridSize="10" guides="1" tooltips="1" connect="1" arrows="1" fold="1" page="1" pageScale="1" pageWidth="827" pageHeight="1169" math="0" shadow="0">
      <root>
        <mxCell id="0" />
        <mxCell id="1" parent="0" />
        <mxCell id="QErxzdIJ6907Oo8gtUWh-29" value="" style="rounded=0;whiteSpace=wrap;html=1;fillColor=#d5e8d4;strokeColor=#82b366;fontFamily=Verdana;" vertex="1" parent="1">
          <mxGeometry x="-600" y="210" width="290" height="270" as="geometry" />
        </mxCell>
        <mxCell id="QErxzdIJ6907Oo8gtUWh-71" value="" style="rounded=1;whiteSpace=wrap;html=1;strokeColor=none;fillColor=#fad9d5;fontFamily=Verdana;" vertex="1" parent="1">
          <mxGeometry x="-450" y="240" width="120" height="190" as="geometry" />
        </mxCell>
        <mxCell id="QErxzdIJ6907Oo8gtUWh-72" value="&lt;font size=&quot;1&quot;&gt;&lt;b style=&quot;font-size: 17px;&quot;&gt;Provider Methods&lt;/b&gt;&lt;/font&gt;" style="text;html=1;strokeColor=none;fillColor=none;align=center;verticalAlign=middle;whiteSpace=wrap;rounded=0;rotation=0;fontFamily=Verdana;" vertex="1" parent="1">
          <mxGeometry x="-443.5" y="242" width="103.5" height="40" as="geometry" />
        </mxCell>
        <mxCell id="QErxzdIJ6907Oo8gtUWh-69" value="" style="rounded=1;whiteSpace=wrap;html=1;strokeColor=none;fillColor=#b0e3e6;fontFamily=Verdana;" vertex="1" parent="1">
          <mxGeometry x="-580" y="240" width="120" height="230" as="geometry" />
        </mxCell>
        <mxCell id="QErxzdIJ6907Oo8gtUWh-24" value="" style="group;verticalAlign=middle;horizontal=0;fillColor=#ffe6cc;strokeColor=#d79b00;container=0;fontFamily=Verdana;" vertex="1" connectable="0" parent="1">
          <mxGeometry x="240" y="180" width="305" height="120" as="geometry" />
        </mxCell>
        <mxCell id="QErxzdIJ6907Oo8gtUWh-26" value="Encapsulator" style="text;html=1;strokeColor=none;fillColor=none;align=center;verticalAlign=middle;whiteSpace=wrap;rounded=0;fontFamily=Verdana;" vertex="1" parent="1">
          <mxGeometry x="316.25" y="179.99555555555554" width="152.5" height="18.095238095238095" as="geometry" />
        </mxCell>
        <mxCell id="QErxzdIJ6907Oo8gtUWh-16" value="" style="group;verticalAlign=middle;horizontal=0;fillColor=#ffe6cc;strokeColor=#d79b00;fontFamily=Verdana;" vertex="1" connectable="0" parent="1">
          <mxGeometry x="414" y="230" width="120" height="40" as="geometry" />
        </mxCell>
        <mxCell id="QErxzdIJ6907Oo8gtUWh-17" value="" style="rounded=0;whiteSpace=wrap;html=1;fillColor=#ffe6cc;strokeColor=#d79b00;fontFamily=Verdana;" vertex="1" parent="QErxzdIJ6907Oo8gtUWh-16">
          <mxGeometry width="120" height="40" as="geometry" />
        </mxCell>
        <mxCell id="QErxzdIJ6907Oo8gtUWh-19" value="Provider" style="text;html=1;strokeColor=none;fillColor=none;align=center;verticalAlign=middle;whiteSpace=wrap;rounded=0;fontFamily=Verdana;" vertex="1" parent="QErxzdIJ6907Oo8gtUWh-16">
          <mxGeometry x="30" y="15.71" width="60" height="8.571428571428571" as="geometry" />
        </mxCell>
        <mxCell id="QErxzdIJ6907Oo8gtUWh-5" value="" style="group;verticalAlign=middle;horizontal=0;fontFamily=Verdana;" vertex="1" connectable="0" parent="1">
          <mxGeometry x="260" y="220" width="130" height="60" as="geometry" />
        </mxCell>
        <mxCell id="QErxzdIJ6907Oo8gtUWh-2" value="" style="rounded=0;whiteSpace=wrap;html=1;fillColor=#d5e8d4;strokeColor=#82b366;fontFamily=Verdana;" vertex="1" parent="QErxzdIJ6907Oo8gtUWh-5">
          <mxGeometry width="120" height="60" as="geometry" />
        </mxCell>
        <mxCell id="QErxzdIJ6907Oo8gtUWh-6" value="Protocol" style="text;html=1;strokeColor=none;fillColor=none;align=center;verticalAlign=middle;whiteSpace=wrap;rounded=0;fontFamily=Verdana;" vertex="1" parent="QErxzdIJ6907Oo8gtUWh-5">
          <mxGeometry x="30" width="60" height="20" as="geometry" />
        </mxCell>
        <mxCell id="QErxzdIJ6907Oo8gtUWh-14" value="Provider" style="rounded=0;whiteSpace=wrap;html=1;fillColor=#f5f5f5;strokeColor=#666666;fontColor=#333333;fontFamily=Verdana;" vertex="1" parent="QErxzdIJ6907Oo8gtUWh-5">
          <mxGeometry x="15" y="21.428571428571427" width="90" height="17.142857142857142" as="geometry" />
        </mxCell>
        <mxCell id="QErxzdIJ6907Oo8gtUWh-27" style="edgeStyle=orthogonalEdgeStyle;rounded=0;orthogonalLoop=1;jettySize=auto;html=1;exitX=0;exitY=0.5;exitDx=0;exitDy=0;entryX=1;entryY=0.5;entryDx=0;entryDy=0;strokeWidth=2;fontFamily=Verdana;" edge="1" parent="1" source="QErxzdIJ6907Oo8gtUWh-17" target="QErxzdIJ6907Oo8gtUWh-14">
          <mxGeometry relative="1" as="geometry" />
        </mxCell>
        <mxCell id="QErxzdIJ6907Oo8gtUWh-30" value="&lt;font style=&quot;font-size: 19px;&quot;&gt;Protocol&lt;/font&gt;" style="text;html=1;strokeColor=none;fillColor=none;align=center;verticalAlign=middle;whiteSpace=wrap;rounded=0;fontFamily=Verdana;" vertex="1" parent="1">
          <mxGeometry x="-492.5" y="210" width="75" height="30" as="geometry" />
        </mxCell>
        <mxCell id="QErxzdIJ6907Oo8gtUWh-32" value="" style="triangle;whiteSpace=wrap;html=1;fillColor=#6c8ebf;strokeColor=#6c8ebf;fontFamily=Verdana;" vertex="1" parent="1">
          <mxGeometry x="-580" y="300" width="10" height="10" as="geometry" />
        </mxCell>
        <mxCell id="QErxzdIJ6907Oo8gtUWh-33" value="" style="triangle;whiteSpace=wrap;html=1;fillColor=#6c8ebf;strokeColor=#6c8ebf;fontFamily=Verdana;" vertex="1" parent="1">
          <mxGeometry x="-580" y="340" width="10" height="10" as="geometry" />
        </mxCell>
        <mxCell id="QErxzdIJ6907Oo8gtUWh-34" value="" style="triangle;whiteSpace=wrap;html=1;fillColor=#6c8ebf;strokeColor=#6c8ebf;fontFamily=Verdana;" vertex="1" parent="1">
          <mxGeometry x="-580" y="376" width="10" height="10" as="geometry" />
        </mxCell>
        <mxCell id="QErxzdIJ6907Oo8gtUWh-35" value="Timer" style="text;html=1;strokeColor=none;fillColor=none;align=left;verticalAlign=middle;whiteSpace=wrap;rounded=0;fontSize=11;fontFamily=Verdana;" vertex="1" parent="1">
          <mxGeometry x="-570" y="290" width="40" height="30" as="geometry" />
        </mxCell>
        <mxCell id="QErxzdIJ6907Oo8gtUWh-36" value="Packet" style="text;html=1;strokeColor=none;fillColor=none;align=left;verticalAlign=middle;whiteSpace=wrap;rounded=0;fontSize=11;fontFamily=Verdana;" vertex="1" parent="1">
          <mxGeometry x="-570" y="330" width="40" height="30" as="geometry" />
        </mxCell>
        <mxCell id="QErxzdIJ6907Oo8gtUWh-37" value="Telemetry" style="text;html=1;strokeColor=none;fillColor=none;align=left;verticalAlign=middle;whiteSpace=wrap;rounded=0;fontSize=11;fontFamily=Verdana;" vertex="1" parent="1">
          <mxGeometry x="-570" y="366" width="60" height="30" as="geometry" />
        </mxCell>
        <mxCell id="QErxzdIJ6907Oo8gtUWh-44" style="edgeStyle=orthogonalEdgeStyle;rounded=0;orthogonalLoop=1;jettySize=auto;html=1;exitX=0;exitY=0.5;exitDx=0;exitDy=0;entryX=0;entryY=0.5;entryDx=0;entryDy=0;endArrow=none;endFill=0;fillColor=#dae8fc;strokeColor=#6c8ebf;strokeWidth=3;fontFamily=Verdana;" edge="1" parent="1" source="QErxzdIJ6907Oo8gtUWh-42" target="QErxzdIJ6907Oo8gtUWh-33">
          <mxGeometry relative="1" as="geometry">
            <Array as="points">
              <mxPoint x="-620" y="140" />
              <mxPoint x="-620" y="345" />
            </Array>
          </mxGeometry>
        </mxCell>
        <mxCell id="QErxzdIJ6907Oo8gtUWh-42" value="" style="shape=image;verticalLabelPosition=bottom;labelBackgroundColor=#ffffff;verticalAlign=top;aspect=fixed;imageAspect=0;image=https://bbn1.bbnradio.org/portuguese/wp-content/uploads/sites/6/2013/04/radio-tower-512-icon-201310543.png;fontFamily=Verdana;" vertex="1" parent="1">
          <mxGeometry x="-485" y="110" width="60" height="60" as="geometry" />
        </mxCell>
        <mxCell id="QErxzdIJ6907Oo8gtUWh-46" style="edgeStyle=orthogonalEdgeStyle;rounded=0;orthogonalLoop=1;jettySize=auto;html=1;exitX=0;exitY=0.5;exitDx=0;exitDy=0;entryX=0;entryY=0.5;entryDx=0;entryDy=0;endArrow=none;endFill=0;fillColor=#dae8fc;strokeColor=#6c8ebf;strokeWidth=3;fontFamily=Verdana;" edge="1" parent="1" source="QErxzdIJ6907Oo8gtUWh-43" target="QErxzdIJ6907Oo8gtUWh-34">
          <mxGeometry relative="1" as="geometry">
            <Array as="points">
              <mxPoint x="-620" y="638" />
              <mxPoint x="-620" y="381" />
            </Array>
          </mxGeometry>
        </mxCell>
        <mxCell id="QErxzdIJ6907Oo8gtUWh-43" value="" style="shape=image;verticalLabelPosition=bottom;labelBackgroundColor=#ffffff;verticalAlign=top;aspect=fixed;imageAspect=0;image=https://cdn-icons-png.flaticon.com/512/5115/5115780.png;fontFamily=Verdana;" vertex="1" parent="1">
          <mxGeometry x="-483" y="610" width="56" height="56" as="geometry" />
        </mxCell>
        <mxCell id="QErxzdIJ6907Oo8gtUWh-54" style="edgeStyle=orthogonalEdgeStyle;rounded=0;orthogonalLoop=1;jettySize=auto;html=1;exitX=1;exitY=0.5;exitDx=0;exitDy=0;entryX=0;entryY=0.5;entryDx=0;entryDy=0;endArrow=none;endFill=0;fillColor=#dae8fc;strokeColor=#6c8ebf;strokeWidth=3;fontFamily=Verdana;" edge="1" parent="1" source="QErxzdIJ6907Oo8gtUWh-47" target="QErxzdIJ6907Oo8gtUWh-32">
          <mxGeometry relative="1" as="geometry">
            <Array as="points">
              <mxPoint x="-320" y="305" />
              <mxPoint x="-320" y="190" />
              <mxPoint x="-590" y="190" />
              <mxPoint x="-590" y="305" />
            </Array>
          </mxGeometry>
        </mxCell>
        <mxCell id="QErxzdIJ6907Oo8gtUWh-56" style="edgeStyle=orthogonalEdgeStyle;rounded=0;orthogonalLoop=1;jettySize=auto;html=1;exitX=1;exitY=0.5;exitDx=0;exitDy=0;strokeWidth=3;endArrow=none;endFill=0;fillColor=#fad9d5;strokeColor=#ae4132;fontFamily=Verdana;" edge="1" parent="1" source="QErxzdIJ6907Oo8gtUWh-47">
          <mxGeometry relative="1" as="geometry">
            <mxPoint x="-460" y="190" as="targetPoint" />
            <Array as="points">
              <mxPoint x="-320" y="305" />
              <mxPoint x="-320" y="190" />
            </Array>
          </mxGeometry>
        </mxCell>
        <mxCell id="QErxzdIJ6907Oo8gtUWh-47" value="" style="triangle;whiteSpace=wrap;html=1;fillColor=#AE4132;strokeColor=#ae4132;fontFamily=Verdana;" vertex="1" parent="1">
          <mxGeometry x="-340" y="300" width="10" height="10" as="geometry" />
        </mxCell>
        <mxCell id="QErxzdIJ6907Oo8gtUWh-53" style="edgeStyle=orthogonalEdgeStyle;rounded=0;orthogonalLoop=1;jettySize=auto;html=1;exitX=1;exitY=0.5;exitDx=0;exitDy=0;entryX=1;entryY=0.5;entryDx=0;entryDy=0;strokeWidth=3;strokeColor=#ae4132;fillColor=#fad9d5;fontFamily=Verdana;" edge="1" parent="1" source="QErxzdIJ6907Oo8gtUWh-48" target="QErxzdIJ6907Oo8gtUWh-42">
          <mxGeometry relative="1" as="geometry">
            <Array as="points">
              <mxPoint x="-290" y="345" />
              <mxPoint x="-290" y="140" />
            </Array>
          </mxGeometry>
        </mxCell>
        <mxCell id="QErxzdIJ6907Oo8gtUWh-48" value="" style="triangle;whiteSpace=wrap;html=1;fillColor=#AE4132;strokeColor=#ae4132;fontFamily=Verdana;" vertex="1" parent="1">
          <mxGeometry x="-340" y="340" width="10" height="10" as="geometry" />
        </mxCell>
        <mxCell id="QErxzdIJ6907Oo8gtUWh-55" style="edgeStyle=orthogonalEdgeStyle;rounded=0;orthogonalLoop=1;jettySize=auto;html=1;exitX=1;exitY=0.5;exitDx=0;exitDy=0;entryX=1;entryY=0.5;entryDx=0;entryDy=0;strokeWidth=3;strokeColor=#ae4132;fillColor=#fad9d5;fontFamily=Verdana;" edge="1" parent="1" source="QErxzdIJ6907Oo8gtUWh-49" target="QErxzdIJ6907Oo8gtUWh-43">
          <mxGeometry relative="1" as="geometry">
            <Array as="points">
              <mxPoint x="-290" y="381" />
              <mxPoint x="-290" y="638" />
            </Array>
          </mxGeometry>
        </mxCell>
        <mxCell id="QErxzdIJ6907Oo8gtUWh-49" value="" style="triangle;whiteSpace=wrap;html=1;fillColor=#AE4132;strokeColor=#ae4132;fontFamily=Verdana;" vertex="1" parent="1">
          <mxGeometry x="-340" y="376" width="10" height="10" as="geometry" />
        </mxCell>
        <mxCell id="QErxzdIJ6907Oo8gtUWh-50" value="Schedule Timer" style="text;html=1;strokeColor=none;fillColor=none;align=right;verticalAlign=middle;whiteSpace=wrap;rounded=0;fontSize=11;fontFamily=Verdana;" vertex="1" parent="1">
          <mxGeometry x="-450" y="290" width="110" height="30" as="geometry" />
        </mxCell>
        <mxCell id="QErxzdIJ6907Oo8gtUWh-51" value="Communication Command" style="text;html=1;strokeColor=none;fillColor=none;align=right;verticalAlign=middle;whiteSpace=wrap;rounded=0;fontSize=11;fontFamily=Verdana;" vertex="1" parent="1">
          <mxGeometry x="-460" y="330" width="120" height="30" as="geometry" />
        </mxCell>
        <mxCell id="QErxzdIJ6907Oo8gtUWh-52" value="Mobility Command" style="text;html=1;strokeColor=none;fillColor=none;align=right;verticalAlign=middle;whiteSpace=wrap;rounded=0;fontSize=11;fontFamily=Verdana;" vertex="1" parent="1">
          <mxGeometry x="-460" y="366" width="120" height="30" as="geometry" />
        </mxCell>
        <mxCell id="QErxzdIJ6907Oo8gtUWh-57" value="&lt;font style=&quot;font-size: 16px;&quot;&gt;Communication&lt;/font&gt;" style="text;html=1;strokeColor=none;fillColor=none;align=center;verticalAlign=middle;whiteSpace=wrap;rounded=0;fontFamily=Verdana;" vertex="1" parent="1">
          <mxGeometry x="-521.5" y="80" width="133" height="30" as="geometry" />
        </mxCell>
        <mxCell id="QErxzdIJ6907Oo8gtUWh-58" value="&lt;font style=&quot;font-size: 16px;&quot;&gt;Mobility&lt;/font&gt;" style="text;html=1;strokeColor=none;fillColor=none;align=center;verticalAlign=middle;whiteSpace=wrap;rounded=0;fontFamily=Verdana;" vertex="1" parent="1">
          <mxGeometry x="-521.5" y="670" width="133" height="30" as="geometry" />
        </mxCell>
        <mxCell id="QErxzdIJ6907Oo8gtUWh-59" value="" style="triangle;whiteSpace=wrap;html=1;fillColor=#AE4132;strokeColor=#ae4132;fontFamily=Verdana;" vertex="1" parent="1">
          <mxGeometry x="-340" y="410" width="10" height="10" as="geometry" />
        </mxCell>
        <mxCell id="QErxzdIJ6907Oo8gtUWh-60" value="Current Time" style="text;html=1;strokeColor=none;fillColor=none;align=center;verticalAlign=middle;whiteSpace=wrap;rounded=0;fontSize=11;fontFamily=Verdana;" vertex="1" parent="1">
          <mxGeometry x="-420" y="400" width="80" height="30" as="geometry" />
        </mxCell>
        <mxCell id="QErxzdIJ6907Oo8gtUWh-63" value="" style="triangle;whiteSpace=wrap;html=1;fillColor=#6c8ebf;strokeColor=#6c8ebf;fontFamily=Verdana;" vertex="1" parent="1">
          <mxGeometry x="-580" y="410" width="10" height="10" as="geometry" />
        </mxCell>
        <mxCell id="QErxzdIJ6907Oo8gtUWh-64" value="Initialize" style="text;html=1;strokeColor=none;fillColor=none;align=left;verticalAlign=middle;whiteSpace=wrap;rounded=0;fontSize=11;fontFamily=Verdana;" vertex="1" parent="1">
          <mxGeometry x="-570" y="400" width="60" height="30" as="geometry" />
        </mxCell>
        <mxCell id="QErxzdIJ6907Oo8gtUWh-65" value="" style="triangle;whiteSpace=wrap;html=1;fillColor=#6c8ebf;strokeColor=#6c8ebf;fontFamily=Verdana;" vertex="1" parent="1">
          <mxGeometry x="-580" y="440" width="10" height="10" as="geometry" />
        </mxCell>
        <mxCell id="QErxzdIJ6907Oo8gtUWh-66" value="Finish" style="text;html=1;strokeColor=none;fillColor=none;align=left;verticalAlign=middle;whiteSpace=wrap;rounded=0;fontSize=11;fontFamily=Verdana;" vertex="1" parent="1">
          <mxGeometry x="-570" y="430" width="60" height="30" as="geometry" />
        </mxCell>
        <mxCell id="QErxzdIJ6907Oo8gtUWh-73" value="&lt;font size=&quot;1&quot;&gt;&lt;b style=&quot;font-size: 17px;&quot;&gt;Protocol Interface&lt;br&gt;&lt;/b&gt;&lt;/font&gt;" style="text;html=1;strokeColor=none;fillColor=none;align=center;verticalAlign=middle;whiteSpace=wrap;rounded=0;rotation=0;fontFamily=Verdana;" vertex="1" parent="1">
          <mxGeometry x="-571.75" y="242" width="103.5" height="40" as="geometry" />
        </mxCell>
      </root>
    </mxGraphModel>
  </diagram>
</mxfile>
